<?xml version="1.0" encoding="UTF-8"?>
<svg xmlns="http://www.w3.org/2000/svg" xmlns:xlink="http://www.w3.org/1999/xlink" width="1517px" height="367px" viewBox="0 0 1516 367" version="1.1">
<g id="surface1">
<path style=" stroke:none;fill-rule:evenodd;fill:rgb(100%,100%,100%);fill-opacity:1;" d="M 627.402344 140.359375 L 597.296875 140.359375 C 598.449219 143.519531 599.316406 146.945312 599.910156 150.386719 C 600.488281 153.832031 600.773438 157.847656 600.773438 161.84375 C 600.773438 171.015625 598.757812 179.328125 594.992188 186.769531 C 591.226562 194.226562 585.730469 200.8125 578.796875 206.539062 C 571.839844 211.980469 563.464844 216.28125 553.917969 219.441406 C 544.082031 222.597656 533.667969 224.023438 521.796875 224.023438 L 521.8125 223.972656 C 513.417969 223.972656 505.617188 223.402344 498.664062 222.257812 C 496.933594 223.972656 495.472656 225.988281 494.320312 228.273438 C 493.171875 230.554688 492.589844 233.144531 492.589844 236.300781 C 492.589844 239.746094 493.167969 242.601562 494.609375 244.902344 C 496.050781 246.898438 498.085938 248.632812 500.96875 249.773438 C 503.871094 250.914062 507.328125 251.769531 511.957031 252.074219 C 516.589844 252.378906 521.796875 252.644531 527.867188 252.644531 L 558.257812 252.644531 C 580.253906 252.644531 596.449219 256.375 607.457031 263.53125 C 618.160156 270.988281 623.65625 283.011719 623.65625 299.644531 C 623.65625 309.671875 621.042969 319.125 615.546875 327.441406 C 610.339844 335.757812 603.097656 342.625 593.839844 348.660156 C 584.867188 354.382812 574.164062 358.96875 562.292969 362.128906 C 550.421875 365.285156 537.992188 367 524.964844 367 L 524.675781 367 C 510.210938 367 498.050781 365.859375 487.925781 363.273438 C 477.800781 360.683594 469.40625 357.257812 462.757812 352.957031 C 456.109375 348.660156 451.480469 343.214844 448.292969 337.203125 C 445.105469 331.1875 443.664062 324.300781 443.664062 317.144531 C 443.664062 312.5625 444.527344 308.261719 446.273438 303.960938 C 448.003906 299.945312 450.328125 296.21875 453.210938 292.792969 C 456.109375 289.347656 459.28125 286.492188 463.335938 283.90625 C 467.101562 281.320312 471.15625 279.320312 475.207031 277.894531 C 469.425781 274.734375 464.792969 271.023438 461.605469 266.4375 C 458.417969 261.851562 456.976562 256.410156 456.976562 250.113281 C 456.976562 242.367188 458.992188 236.070312 463.046875 230.628906 C 467.101562 225.472656 472.308594 220.601562 478.667969 216.585938 C 468.253906 212 460.722656 205.414062 455.804688 196.816406 C 450.886719 188.214844 448.273438 178.1875 448.273438 166.730469 C 448.273438 157.5625 450.292969 149.53125 454.34375 142.09375 C 458.398438 134.632812 464.183594 128.335938 471.136719 123.179688 C 478.375 118.019531 486.46875 114.007812 496.015625 111.132812 C 505.5625 108.261719 515.6875 106.835938 526.40625 106.835938 L 526.695312 106.835938 C 552.152344 106.835938 570.980469 111.703125 583.40625 121.445312 C 584.847656 119.734375 586.882812 118.003906 589.191406 116.289062 C 591.496094 114.578125 594.398438 112.847656 597.585938 111.421875 C 600.773438 109.992188 604.253906 108.832031 608 107.976562 C 611.765625 107.121094 615.816406 106.546875 620.160156 106.546875 L 627.402344 106.546875 Z M 495.761719 283.585938 C 493.746094 285.886719 491.707031 288.742188 489.980469 292.1875 C 488.25 295.628906 487.367188 300.785156 487.367188 306.796875 C 487.367188 313.667969 488.230469 319.414062 489.980469 324 C 491.707031 328.585938 494.613281 332.597656 498.085938 335.453125 C 501.5625 338.324219 506.195312 340.609375 511.398438 341.753906 C 516.605469 343.179688 522.679688 343.75 529.632812 343.75 L 529.921875 343.75 C 535.992188 343.75 542.082031 343.179688 548.152344 341.753906 C 553.9375 340.328125 559.445312 338.308594 564.058594 335.453125 C 568.6875 332.582031 572.453125 328.871094 575.046875 324.570312 C 577.949219 320.269531 579.390625 315.113281 579.390625 309.386719 C 579.390625 305.085938 578.8125 301.070312 577.949219 297.929688 C 577.085938 294.773438 575.335938 292.203125 572.746094 290.1875 C 570.128906 288.191406 566.957031 286.742188 562.617188 285.886719 C 558.273438 285.03125 552.78125 284.457031 546.117188 284.457031 L 513.992188 284.457031 L 513.992188 284.441406 C 513.917969 284.441406 501.242188 284.4375 495.761719 283.585938 Z M 523.847656 126.816406 C 514.300781 126.816406 507.363281 129.976562 503.003906 135.988281 C 498.664062 142.003906 496.355469 150.886719 496.355469 163.21875 C 496.355469 169.230469 496.933594 174.671875 497.796875 179.558594 C 498.664062 184.429688 500.410156 188.730469 502.429688 192.460938 C 504.753906 195.90625 507.636719 198.761719 511.398438 200.777344 C 515.164062 202.773438 519.796875 203.933594 525.578125 203.933594 L 525.578125 203.917969 C 530.785156 203.917969 535.128906 202.773438 538.605469 200.757812 C 542.082031 198.757812 544.675781 195.886719 546.710938 192.445312 C 548.730469 189 549.898438 184.699219 550.761719 179.828125 C 551.628906 174.957031 551.914062 169.800781 551.914062 164.644531 C 551.914062 151.460938 549.898438 141.714844 545.554688 135.703125 C 541.214844 129.691406 534.28125 126.816406 524.136719 126.816406 Z M 523.847656 126.816406 "/>
<path style=" stroke:none;fill-rule:nonzero;fill:rgb(100%,100%,100%);fill-opacity:1;" d="M 900.894531 114.042969 L 900.914062 114.058594 L 943.988281 114.058594 L 943.988281 138.859375 L 900.914062 138.859375 L 900.914062 219.34375 C 900.914062 227.0625 900.910156 233.132812 901.183594 237.808594 C 901.453125 242.5 902.011719 245.792969 902.855469 248.011719 C 903.683594 250.214844 905.351562 251.878906 907.296875 252.417969 C 909.234375 252.953125 912.023438 253.527344 915.347656 253.527344 L 915.617188 253.527344 C 917.847656 253.527344 920.347656 253.257812 923.113281 252.972656 C 925.613281 252.703125 928.117188 252.148438 930.613281 251.59375 C 933.109375 251.039062 935.339844 250.484375 937.554688 249.945312 C 939.78125 249.390625 941.4375 248.835938 942.835938 248.300781 L 943.125 248.300781 L 950.066406 265.382812 C 947.011719 267.582031 943.664062 269.785156 939.222656 272.007812 C 934.785156 274.210938 930.324219 276.144531 925.058594 278.078125 C 919.773438 280.011719 914.503906 281.390625 908.660156 282.480469 C 902.820312 283.574219 897.261719 284.128906 891.441406 284.128906 L 891.167969 284.128906 C 884.769531 284.128906 879.214844 283.304688 874.773438 281.640625 C 870.332031 279.992188 866.433594 277.503906 863.664062 274.191406 C 860.894531 270.878906 858.933594 267.027344 857.546875 262.070312 C 856.164062 257.109375 855.609375 251.863281 855.609375 245.523438 L 855.609375 138.574219 L 835.039062 138.574219 L 835.039062 122.027344 C 835.582031 121.847656 844.246094 120.933594 847.679688 119.554688 C 851.238281 117.925781 854.566406 115.347656 857.65625 111.785156 C 860.679688 107.613281 863.359375 102.742188 865.550781 96.816406 L 875.0625 71.03125 L 900.335938 71.03125 Z M 900.894531 114.042969 "/>
<path style=" stroke:none;fill-rule:evenodd;fill:rgb(100%,100%,100%);fill-opacity:1;" d="M 67.257812 126.722656 C 69.484375 124.511719 72.285156 122.015625 75.621094 120.074219 C 78.691406 117.863281 82.320312 115.921875 85.945312 114.253906 C 89.859375 112.601562 93.757812 111.199219 98.226562 110.101562 C 102.699219 108.988281 107.4375 108.449219 112.464844 108.449219 C 121.386719 108.449219 129.773438 109.832031 137.582031 112.886719 C 145.390625 115.941406 152.375 120.648438 158.230469 127.011719 C 164.082031 133.660156 168.839844 141.960938 172.46875 152.488281 C 175.824219 163.019531 177.765625 175.46875 177.765625 190.707031 C 177.765625 203.714844 175.808594 215.628906 171.910156 226.984375 C 167.996094 238.339844 162.144531 247.753906 154.601562 256.058594 C 147.0625 264.359375 137.851562 270.734375 127.257812 275.445312 C 116.378906 280.152344 104.386719 282.648438 90.703125 282.648438 C 81.222656 282.648438 72.570312 282.09375 64.472656 281.265625 C 56.664062 280.441406 49.679688 279.324219 43.824219 277.941406 C 37.972656 276.558594 33.214844 275.445312 29.589844 274.0625 C 25.960938 272.675781 23.179688 271.851562 22.046875 271.003906 L 22.046875 85.578125 L 0 81.980469 L 0 64.804688 L 67.257812 56.234375 Z M 93.753906 135.292969 C 87.617188 135.292969 82.320312 136.40625 77.847656 138.617188 C 73.378906 140.828125 69.75 143.324219 67.238281 146.09375 L 67.238281 255.75 C 68.636719 257.960938 71.152344 259.902344 75.046875 261.015625 C 78.960938 262.398438 83.703125 262.957031 88.730469 262.957031 C 95.425781 262.957031 101.28125 261.285156 106.039062 257.691406 C 111.0625 254.097656 114.960938 249.390625 118.316406 243.300781 C 121.65625 237.207031 123.902344 230.003906 125.570312 221.972656 C 127.242188 213.941406 128.085938 205.082031 128.085938 195.9375 C 128.085938 186.789062 127.527344 177.929688 126.128906 170.1875 C 124.726562 162.710938 122.789062 156.332031 119.71875 151.085938 C 116.933594 145.824219 113.308594 141.941406 108.839844 139.175781 C 104.925781 136.675781 99.628906 135.292969 93.773438 135.292969 Z M 93.753906 135.292969 "/>
<path style=" stroke:none;fill-rule:nonzero;fill:rgb(100%,100%,100%);fill-opacity:1;" d="M 253.875 149.316406 L 254.429688 149.316406 C 255.539062 146.230469 257.761719 142.316406 260.828125 137.554688 C 263.894531 132.792969 267.78125 128.050781 272.246094 123.558594 C 276.707031 119.085938 281.996094 115.171875 287.835938 112.085938 C 293.679688 109 300.078125 107.324219 307.050781 107.324219 C 310.113281 107.324219 312.339844 107.324219 314.007812 107.613281 C 315.671875 107.902344 317.070312 108.171875 318.183594 108.460938 L 318.183594 159.667969 C 317.070312 158.820312 314.292969 157.992188 309.832031 157.144531 C 305.367188 156.296875 299.808594 155.738281 293.683594 155.738281 C 290.347656 155.738281 286.726562 156.023438 283.375 156.296875 C 280.042969 156.582031 276.6875 157.144531 273.625 157.972656 C 270.558594 158.53125 268.050781 159.378906 265.558594 160.210938 C 263.050781 161.058594 261.382812 161.886719 259.984375 162.734375 L 259.984375 256.746094 L 296.460938 260.390625 L 296.460938 279.691406 L 194.277344 279.691406 L 194.277344 259.832031 L 214.691406 256.980469 L 214.691406 143.382812 L 192.703125 138.148438 L 192.703125 114.539062 L 254.140625 106.546875 Z M 253.875 149.316406 "/>
<path style=" stroke:none;fill-rule:nonzero;fill:rgb(100%,100%,100%);fill-opacity:1;" d="M 411.714844 256.746094 L 433.207031 259.832031 L 433.207031 279.691406 L 343.574219 279.691406 L 343.574219 259.832031 L 365.34375 257.035156 L 365.34375 141.878906 L 345.277344 137.046875 L 345.277344 114.953125 L 411.714844 106.546875 Z M 411.714844 256.746094 "/>
<path style=" stroke:none;fill-rule:nonzero;fill:rgb(100%,100%,100%);fill-opacity:1;" d="M 705.96875 131.207031 C 708.472656 128.722656 710.09375 128.542969 714.269531 125.789062 C 718.449219 123.039062 722.628906 120.550781 727.632812 118.355469 C 732.640625 116.15625 738.222656 114.226562 744.058594 112.582031 C 749.914062 111.203125 756.304688 110.382812 762.71875 110.382812 C 772.1875 110.382812 780.257812 111.757812 786.382812 114.242188 C 792.503906 116.726562 797.511719 120.855469 801.417969 126.363281 C 805.324219 131.867188 807.542969 138.75 809.21875 147.011719 C 810.605469 155.269531 811.449219 165.171875 811.449219 176.472656 L 811.449219 256.863281 L 832.054688 259.882812 L 832.054688 279.421875 L 749.914062 279.421875 L 749.914062 260.417969 L 766.335938 257.113281 L 766.335938 176.167969 C 766.335938 169.554688 766.066406 163.777344 765.21875 158.828125 C 764.664062 153.875 763.277344 150.011719 761.3125 146.707031 C 759.367188 143.398438 756.863281 141.199219 753.515625 139.824219 C 750.164062 138.449219 745.714844 137.625 740.421875 137.625 C 737.359375 137.625 734.296875 137.894531 730.949219 138.734375 C 727.601562 139.554688 724.535156 140.378906 721.765625 141.21875 C 718.703125 142.328125 715.910156 143.417969 713.40625 144.792969 C 710.902344 146.171875 708.671875 147.546875 706.726562 148.921875 L 706.726562 257.128906 L 726.773438 260.152344 L 726.773438 279.691406 L 643.222656 279.691406 L 643.222656 279.421875 L 643.242188 279.421875 L 643.242188 259.882812 L 661.34375 256.863281 L 661.34375 85.230469 L 639.351562 81.652344 L 639.351562 64.582031 L 705.96875 56.234375 Z M 705.96875 131.207031 "/>
<path style=" stroke:none;fill-rule:nonzero;fill:rgb(100%,100%,100%);fill-opacity:1;" d="M 383.511719 0 C 377.707031 11.25 397.996094 27.597656 402.75 32.332031 C 406.035156 26.949219 409.042969 23.585938 411.765625 22.230469 C 407.25 31.132812 412.179688 39.222656 413.402344 47.296875 C 415.855469 64.273438 406.425781 79.632812 390.058594 83.277344 C 378.191406 85.699219 366.734375 84.496094 358.542969 74.789062 C 350.347656 65.492188 349.128906 54.585938 353.628906 43.261719 C 356.496094 36.390625 358.542969 29.929688 354.453125 22.25 L 354.4375 22.230469 C 359.761719 24.261719 362.21875 27.488281 364.675781 31.9375 C 368.761719 29.515625 370.804688 25.875 371.628906 21.835938 C 372.453125 17.78125 373.28125 13.746094 374.496094 9.707031 C 376.144531 5.652344 378.601562 2.421875 383.511719 0 Z M 383.511719 0 "/>
<path style=" stroke:none;fill-rule:nonzero;fill:rgb(62.352943%,75.294119%,100%);fill-opacity:1;" d="M 1117.359375 178.789062 L 1086.410156 166.15625 C 1076.722656 162.125 1065.144531 157.019531 1065.144531 143.578125 C 1065.144531 129.871094 1077.257812 122.34375 1092.601562 122.34375 C 1108.480469 122.34375 1122.742188 130.140625 1134.585938 140.890625 L 1151.273438 115.894531 C 1140.238281 104.605469 1121.128906 93.585938 1094.753906 93.585938 C 1055.726562 93.585938 1030.425781 115.894531 1030.425781 148.148438 C 1030.425781 170.726562 1043.886719 184.972656 1064.070312 193.035156 L 1093.136719 204.59375 C 1109.019531 211.046875 1118.707031 215.882812 1118.707031 230.398438 C 1118.707031 246.527344 1106.863281 254.859375 1089.640625 254.859375 C 1072.144531 254.859375 1054.648438 246.257812 1040.117188 230.398438 L 1023.429688 255.664062 C 1035.539062 269.640625 1057.34375 284.425781 1089.101562 284.425781 C 1128.398438 284.425781 1153.695312 261.578125 1153.695312 227.171875 C 1153.695312 204.058594 1143.46875 189.542969 1117.359375 178.789062 Z M 1117.359375 178.789062 "/>
<path style=" stroke:none;fill-rule:nonzero;fill:rgb(62.352943%,75.294119%,100%);fill-opacity:1;" d="M 1180.332031 95.734375 L 1180.332031 281.199219 L 1239.8125 281.199219 C 1272.109375 281.199219 1296.066406 270.714844 1310.328125 258.082031 C 1324.863281 245.449219 1339.933594 223.679688 1339.933594 188.199219 C 1339.933594 152.988281 1324.863281 131.753906 1310.328125 119.121094 C 1296.066406 106.21875 1272.109375 95.734375 1239.8125 95.734375 Z M 1241.160156 251.632812 L 1215.320312 251.632812 L 1215.320312 125.03125 L 1241.160156 125.03125 C 1261.34375 125.03125 1276.148438 131.753906 1285.296875 140.085938 C 1294.179688 148.6875 1303.867188 163.738281 1303.867188 188.46875 C 1303.867188 213.464844 1294.179688 227.710938 1285.296875 236.3125 C 1276.148438 244.914062 1261.34375 251.632812 1241.160156 251.632812 Z M 1241.160156 251.632812 "/>
<path style=" stroke:none;fill-rule:nonzero;fill:rgb(62.352943%,75.294119%,100%);fill-opacity:1;" d="M 1418.882812 194.917969 L 1472.980469 281.199219 L 1514.96875 281.199219 L 1440.953125 170.191406 L 1510.125 95.734375 L 1468.40625 95.734375 L 1401.925781 169.113281 L 1401.925781 95.734375 L 1367.207031 95.734375 L 1367.207031 281.199219 L 1401.925781 281.199219 L 1401.925781 212.925781 Z M 1418.882812 194.917969 "/>
</g>
</svg>
