<?xml version="1.0" encoding="UTF-8"?>
<svg xmlns="http://www.w3.org/2000/svg" xmlns:xlink="http://www.w3.org/1999/xlink" width="1682px" height="369px" viewBox="0 0 1682 369" version="1.1">
<g id="surface1">
<path style=" stroke:none;fill-rule:nonzero;fill:rgb(77.64706%,85.882354%,100%);fill-opacity:1;" d="M 1239.207031 36.898438 C 1381.824219 36.898438 1381.824219 36.898438 1423.703125 76.875 C 1447.671875 104.269531 1453.484375 138.085938 1452.351562 173.703125 C 1449 210.898438 1431.769531 238.234375 1403.535156 262.214844 C 1355.792969 295.980469 1294.296875 282.898438 1239.207031 282.898438 C 1239.207031 201.71875 1239.207031 120.539062 1239.207031 36.898438 Z M 1288.40625 79.949219 C 1288.40625 133.730469 1288.40625 187.511719 1288.40625 242.925781 C 1338.117188 245.160156 1338.117188 245.160156 1379.585938 223.40625 C 1397.351562 201.625 1404.703125 175.378906 1402.179688 147.601562 C 1398.273438 123.390625 1387.777344 104.46875 1368.355469 89.175781 C 1339.496094 76.710938 1339.496094 76.710938 1288.40625 79.949219 Z M 1288.40625 79.949219 "/>
<path style=" stroke:none;fill-rule:nonzero;fill:rgb(23.921569%,49.803922%,98.823529%);fill-opacity:1;" d="M 594.164062 115.410156 C 603.5625 117.894531 610.019531 112.246094 618.066406 107.625 C 626.445312 106.800781 634.222656 107.1875 642.664062 107.625 C 642.664062 118.789062 642.664062 129.949219 642.664062 141.449219 C 633.53125 141.449219 624.398438 141.449219 614.992188 141.449219 C 616.511719 144.496094 616.511719 144.496094 618.066406 147.601562 C 620.601562 167.625 617.496094 183.375 605.765625 199.875 C 591.582031 216.503906 574.859375 224.035156 553.492188 227.550781 C 541.144531 228.207031 528.941406 228.121094 516.59375 227.550781 C 514.289062 238.226562 514.289062 238.226562 513.515625 249.074219 C 515.71875 249.136719 517.917969 249.195312 520.183594 249.257812 C 530.261719 249.554688 540.339844 249.890625 550.417969 250.226562 C 555.609375 250.371094 555.609375 250.371094 560.902344 250.515625 C 588.042969 251.46875 611.515625 252.851562 633.441406 270.601562 C 642.546875 284.894531 641.042969 300.378906 639.589844 316.726562 C 633.261719 337.289062 616.871094 350.066406 598.90625 360.796875 C 567.699219 374.839844 520.875 375.53125 488.726562 363.8125 C 475.441406 357.144531 467.863281 348.417969 461.242188 335.175781 C 459.324219 321.882812 458.316406 309.53125 465.148438 297.613281 C 469.738281 292.152344 474.070312 287.296875 479.691406 282.898438 C 481.722656 282.898438 483.75 282.898438 485.84375 282.898438 C 483.8125 280.363281 481.785156 277.828125 479.691406 275.210938 C 473.191406 265.367188 471.753906 257.582031 472.292969 245.878906 C 474.316406 236.109375 479.890625 229.210938 485.84375 221.398438 C 485.84375 219.371094 485.84375 217.339844 485.84375 215.25 C 483.433594 212.96875 481.023438 210.683594 478.539062 208.332031 C 466.570312 195.789062 464.039062 184.5 463.355469 167.585938 C 463.820312 152.265625 467.476562 141.847656 478.082031 130.398438 C 509.175781 101.433594 555.976562 99.605469 594.164062 115.410156 Z M 516.59375 144.523438 C 511.621094 161.789062 512.984375 177.015625 519.667969 193.726562 C 522.683594 200.070312 522.683594 200.070312 528.890625 202.949219 C 541.488281 204.882812 541.488281 204.882812 553.492188 202.949219 C 562.382812 194.558594 565.5 189.316406 567.535156 177.195312 C 567.910156 154.511719 567.910156 154.511719 559.257812 134.148438 C 540.589844 123.597656 528.941406 127.234375 516.59375 144.523438 Z M 507.367188 292.125 C 503.1875 307.101562 504.738281 317.703125 510.441406 332.101562 C 522.894531 344.148438 535.832031 345.289062 552.421875 345.074219 C 566.617188 343.75 576.957031 338.089844 588.660156 329.984375 C 596.117188 318.949219 594.929688 311.457031 593.464844 298.273438 C 588.40625 291.058594 585.507812 289.292969 576.800781 287.621094 C 572.484375 287.445312 572.484375 287.445312 568.085938 287.261719 C 564.953125 287.125 561.820312 286.988281 558.589844 286.847656 C 555.324219 286.75 552.054688 286.652344 548.6875 286.550781 C 545.40625 286.394531 542.128906 286.238281 538.746094 286.078125 C 521.359375 284.148438 521.359375 284.148438 507.367188 292.125 Z M 507.367188 292.125 "/>
<path style=" stroke:none;fill-rule:nonzero;fill:rgb(77.64706%,85.882354%,100%);fill-opacity:1;" d="M 1485.203125 36.898438 C 1500.425781 36.898438 1515.644531 36.898438 1531.328125 36.898438 C 1532.34375 67.34375 1533.355469 97.785156 1534.402344 129.148438 C 1543.535156 119.003906 1552.667969 108.855469 1562.078125 98.398438 C 1577.675781 81.359375 1577.675781 81.359375 1583.769531 74.925781 C 1590.144531 68.136719 1595.835938 61.605469 1600.777344 53.691406 C 1605.945312 45.613281 1608.984375 41.617188 1617.425781 36.898438 C 1636.765625 33.964844 1656.433594 35.503906 1675.851562 36.898438 C 1663.460938 54.601562 1649.644531 69.605469 1634.207031 84.71875 C 1623.933594 94.960938 1614.503906 105.792969 1605.125 116.851562 C 1601.941406 120.570312 1598.75 124.292969 1595.5625 128.011719 C 1593.898438 129.953125 1592.234375 131.894531 1590.519531 133.890625 C 1589.253906 135.371094 1587.984375 136.851562 1586.675781 138.375 C 1587.78125 140.003906 1588.882812 141.632812 1590.019531 143.3125 C 1601.5 160.265625 1612.972656 177.226562 1624.4375 194.191406 C 1628.71875 200.523438 1633 206.851562 1637.285156 213.179688 C 1643.445312 222.273438 1649.59375 231.375 1655.742188 240.476562 C 1657.660156 243.304688 1659.582031 246.132812 1661.558594 249.046875 C 1663.34375 251.691406 1665.128906 254.339844 1666.964844 257.066406 C 1669.320312 260.546875 1669.320312 260.546875 1671.726562 264.101562 C 1675.605469 270.214844 1678.894531 276.363281 1682 282.898438 C 1661.722656 286.8125 1640.347656 289.933594 1620.5 282.898438 C 1604.628906 268.988281 1596.503906 248.394531 1587.6875 229.621094 C 1581.496094 217.167969 1573.835938 205.898438 1565.921875 194.492188 C 1563.371094 190.730469 1560.824219 186.96875 1558.28125 183.203125 C 1556.488281 180.585938 1554.699219 177.96875 1552.851562 175.273438 C 1540.796875 183.75 1535.296875 188.847656 1532.589844 203.609375 C 1531.894531 215.574219 1531.683594 227.484375 1531.710938 239.464844 C 1531.65625 243.679688 1531.59375 247.890625 1531.519531 252.101562 C 1531.375 262.367188 1531.339844 272.632812 1531.328125 282.898438 C 1516.105469 282.898438 1500.886719 282.898438 1485.203125 282.898438 C 1485.203125 201.71875 1485.203125 120.539062 1485.203125 36.898438 Z M 1485.203125 36.898438 "/>
<path style=" stroke:none;fill-rule:nonzero;fill:rgb(77.64706%,85.882354%,100%);fill-opacity:1;" d="M 1193.179688 53.402344 C 1199.230469 58.425781 1199.230469 58.425781 1202.199219 64.261719 C 1202.355469 73.523438 1198.628906 77.902344 1193.273438 85.332031 C 1191.535156 87.789062 1189.792969 90.246094 1188 92.777344 C 1186.632812 94.632812 1185.265625 96.488281 1183.855469 98.398438 C 1174.390625 94.746094 1165.46875 90.765625 1156.566406 85.90625 C 1140.753906 77.988281 1128.167969 75.636719 1110.636719 79.375 C 1100.707031 82.296875 1100.707031 82.296875 1094.683594 89.175781 C 1092.945312 101.722656 1092.945312 101.722656 1094.683594 113.773438 C 1107.042969 126.582031 1122.847656 131.976562 1139.078125 138.375 C 1165.007812 148.640625 1185.363281 158.675781 1202.308594 181.425781 C 1208.929688 201.292969 1209.421875 227.984375 1200.769531 247.34375 C 1187.832031 268.425781 1169.753906 281.863281 1145.804688 287.703125 C 1112.066406 293.328125 1077.769531 287.6875 1049.519531 267.523438 C 1040.617188 260.507812 1038.605469 256.839844 1033.183594 246 C 1040.289062 235.851562 1047.390625 225.703125 1054.710938 215.25 C 1056.972656 216.734375 1059.234375 218.214844 1061.566406 219.742188 C 1064.570312 221.683594 1067.570312 223.628906 1070.660156 225.628906 C 1073.621094 227.554688 1076.582031 229.480469 1079.632812 231.464844 C 1098.972656 243 1115.398438 245.609375 1137.734375 242.925781 C 1149.109375 237.007812 1152.078125 233.652344 1156.183594 221.59375 C 1156.183594 210.09375 1153.734375 205.992188 1146.957031 196.800781 C 1139.269531 191.542969 1139.269531 191.542969 1130.238281 187.574219 C 1126.964844 186.019531 1123.691406 184.46875 1120.316406 182.867188 C 1110.507812 178.546875 1100.621094 174.582031 1090.648438 170.664062 C 1071.195312 162.691406 1058.140625 153.339844 1045.675781 136.453125 C 1039.457031 116.695312 1038.648438 94.925781 1047.214844 75.722656 C 1060.449219 53.304688 1080.628906 41.859375 1105.0625 34.785156 C 1138.410156 30.816406 1164.273438 36.363281 1193.179688 53.402344 Z M 1193.179688 53.402344 "/>
<path style=" stroke:none;fill-rule:nonzero;fill:rgb(23.921569%,49.803922%,98.823529%);fill-opacity:1;" d="M 722.613281 55.351562 C 722.613281 78.6875 722.613281 102.027344 722.613281 126.074219 C 732.761719 121 742.910156 115.925781 753.363281 110.699219 C 775.714844 105.113281 791.792969 105.871094 811.789062 116.851562 C 825.023438 129.175781 826.867188 148.613281 827.859375 165.859375 C 827.859375 170.023438 827.828125 174.1875 827.761719 178.351562 C 827.753906 180.566406 827.746094 182.785156 827.738281 185.070312 C 827.703125 192.054688 827.625 199.039062 827.546875 206.023438 C 827.515625 210.800781 827.488281 215.578125 827.464844 220.355469 C 827.394531 231.980469 827.289062 243.601562 827.164062 255.226562 C 834.265625 256.238281 841.367188 257.253906 848.6875 258.300781 C 848.6875 265.402344 848.6875 272.507812 848.6875 279.824219 C 820.273438 279.824219 791.863281 279.824219 762.589844 279.824219 C 762.589844 272.722656 762.589844 265.617188 762.589844 258.300781 C 768.675781 256.777344 768.675781 256.777344 774.886719 255.226562 C 775.117188 240.503906 775.285156 225.785156 775.394531 211.0625 C 775.441406 206.054688 775.503906 201.046875 775.585938 196.039062 C 775.695312 188.839844 775.75 181.644531 775.789062 174.445312 C 775.835938 172.207031 775.882812 169.96875 775.933594 167.660156 C 775.945312 155.449219 775.945312 155.449219 770.84375 144.636719 C 762.027344 139.214844 754.238281 140.609375 744.140625 141.449219 C 737.035156 143.480469 729.933594 145.507812 722.613281 147.601562 C 722.613281 183.117188 722.613281 218.632812 722.613281 255.226562 C 733.269531 256.746094 733.269531 256.746094 744.140625 258.300781 C 744.140625 265.402344 744.140625 272.507812 744.140625 279.824219 C 715.726562 279.824219 687.3125 279.824219 658.039062 279.824219 C 658.039062 272.722656 658.039062 265.617188 658.039062 258.300781 C 667.171875 256.777344 667.171875 256.777344 676.488281 255.226562 C 676.488281 199.414062 676.488281 143.601562 676.488281 86.101562 C 669.386719 85.085938 662.285156 84.070312 654.964844 83.023438 C 654.964844 75.921875 654.964844 68.820312 654.964844 61.5 C 661.625 60.453125 668.289062 59.433594 674.953125 58.425781 C 678.664062 57.855469 682.371094 57.285156 686.195312 56.695312 C 698.015625 55.351562 698.015625 55.351562 722.613281 55.351562 Z M 722.613281 55.351562 "/>
<path style=" stroke:none;fill-rule:nonzero;fill:rgb(23.921569%,49.803922%,98.823529%);fill-opacity:1;" d="M 67.648438 55.351562 C 68.664062 76.660156 69.679688 97.96875 70.722656 119.925781 C 78.84375 115.867188 86.960938 111.808594 95.324219 107.625 C 114.210938 104.183594 130.894531 107.351562 147.597656 116.851562 C 167.863281 134.351562 175.707031 152.105469 178.347656 178.351562 C 178.722656 208.917969 174.367188 237.78125 153.171875 260.992188 C 138.785156 275.488281 118.875 283.359375 98.699219 284.425781 C 93.539062 284.429688 88.375 284.367188 83.214844 284.246094 C 80.664062 284.265625 78.113281 284.289062 75.488281 284.3125 C 55.007812 284.105469 42.277344 279.898438 21.523438 273.675781 C 21.523438 211.773438 21.523438 149.875 21.523438 86.101562 C 15.4375 86.101562 9.347656 86.101562 3.074219 86.101562 C 0 83.023438 0 83.023438 -0.191406 73.609375 C -0.128906 70.628906 -0.0664062 67.644531 0 64.574219 C 22.503906 59.824219 44.5625 55.351562 67.648438 55.351562 Z M 67.648438 147.601562 C 66.476562 156.09375 66.066406 163.34375 66.230469 171.828125 C 66.234375 174.1875 66.238281 176.550781 66.238281 178.984375 C 66.257812 183.96875 66.308594 188.953125 66.382812 193.941406 C 66.496094 201.585938 66.507812 209.230469 66.507812 216.878906 C 66.539062 221.71875 66.574219 226.5625 66.617188 231.40625 C 66.621094 233.699219 66.628906 235.992188 66.636719 238.355469 C 66.464844 251.273438 66.464844 251.273438 73.800781 261.375 C 87.53125 262.726562 94.953125 263.289062 107.046875 256.570312 C 124.3125 237.332031 126.898438 214.273438 126.53125 189.507812 C 125.554688 172.230469 123.363281 158.707031 113.390625 144.332031 C 98.40625 134.238281 80.609375 133.34375 67.648438 147.601562 Z M 67.648438 147.601562 "/>
<path style=" stroke:none;fill-rule:nonzero;fill:rgb(23.921569%,49.803922%,98.823529%);fill-opacity:1;" d="M 894.8125 70.726562 C 904.960938 70.726562 915.105469 70.726562 925.5625 70.726562 C 925.5625 84.929688 925.5625 99.136719 925.5625 113.773438 C 939.765625 113.773438 953.972656 113.773438 968.609375 113.773438 C 968.910156 132.695312 968.910156 132.695312 968.609375 138.375 C 967.089844 139.898438 967.089844 139.898438 965.535156 141.449219 C 952.34375 141.449219 939.152344 141.449219 925.5625 141.449219 C 926.574219 176.964844 927.589844 212.484375 928.636719 249.074219 C 947.640625 249.128906 947.640625 249.128906 965.535156 246 C 968.578125 253.101562 971.625 260.207031 974.761719 267.523438 C 969.96875 270.046875 965.160156 272.539062 960.347656 275.019531 C 957.671875 276.410156 954.996094 277.804688 952.238281 279.238281 C 935.789062 286.558594 918.753906 287.722656 900.960938 285.976562 C 890.386719 281.835938 886.683594 278.484375 880.621094 268.917969 C 875.242188 255.507812 875.191406 244.550781 875.460938 230.265625 C 875.472656 227.628906 875.488281 224.992188 875.5 222.277344 C 875.550781 213.914062 875.667969 205.550781 875.785156 197.183594 C 875.832031 191.492188 875.875 185.796875 875.910156 180.105469 C 876.011719 166.191406 876.171875 152.285156 876.363281 138.375 C 870.273438 138.375 864.183594 138.375 857.914062 138.375 C 857.914062 132.285156 857.914062 126.199219 857.914062 119.925781 C 862.15625 118.277344 862.15625 118.277344 866.488281 116.597656 C 878.753906 109.269531 881.3125 103.183594 886.738281 90.136719 C 888.285156 86.507812 889.832031 82.882812 891.425781 79.144531 C 892.542969 76.367188 893.660156 73.585938 894.8125 70.726562 Z M 894.8125 70.726562 "/>
<path style=" stroke:none;fill-rule:nonzero;fill:rgb(23.921569%,49.803922%,98.823529%);fill-opacity:1;" d="M 255.222656 107.625 C 263.714844 116.117188 263.148438 123.636719 264.445312 135.300781 C 266.664062 132.445312 268.886719 129.59375 271.171875 126.652344 C 278.507812 118.007812 284.503906 112 295.195312 107.625 C 304.570312 106.914062 313.441406 107.203125 322.871094 107.625 C 322.871094 124.875 322.871094 142.125 322.871094 159.898438 C 312.859375 159.800781 302.851562 159.699219 292.839844 159.601562 C 282.390625 159.5625 282.390625 159.5625 270.597656 162.976562 C 269.582031 193.417969 268.566406 223.859375 267.519531 255.226562 C 276.652344 255.226562 285.785156 255.226562 295.195312 255.226562 C 297.226562 256.238281 299.253906 257.253906 301.34375 258.300781 C 301.34375 265.402344 301.34375 272.507812 301.34375 279.824219 C 267.859375 279.824219 234.371094 279.824219 199.871094 279.824219 C 199.871094 271.707031 199.871094 263.589844 199.871094 255.226562 C 205.960938 255.226562 212.050781 255.226562 218.320312 255.226562 C 217.308594 218.695312 216.292969 182.164062 215.246094 144.523438 C 207.636719 141.480469 207.636719 141.480469 199.871094 138.375 C 199.871094 130.257812 199.871094 122.140625 199.871094 113.773438 C 218.585938 109.480469 235.988281 106.25 255.222656 107.625 Z M 255.222656 107.625 "/>
<path style=" stroke:none;fill-rule:nonzero;fill:rgb(23.921569%,49.803922%,98.823529%);fill-opacity:1;" d="M 421.269531 107.625 C 421.269531 156.332031 421.269531 205.039062 421.269531 255.226562 C 431.921875 256.746094 431.921875 256.746094 442.792969 258.300781 C 442.792969 265.402344 442.792969 272.507812 442.792969 279.824219 C 413.367188 279.824219 383.9375 279.824219 353.621094 279.824219 C 353.621094 272.722656 353.621094 265.617188 353.621094 258.300781 C 362.753906 256.777344 362.753906 256.777344 372.070312 255.226562 C 372.070312 218.695312 372.070312 182.164062 372.070312 144.523438 C 362.9375 143.003906 362.9375 143.003906 353.621094 141.449219 C 353.621094 132.316406 353.621094 123.183594 353.621094 113.773438 C 360.855469 112.730469 368.09375 111.710938 375.335938 110.699219 C 377.355469 110.40625 379.375 110.113281 381.457031 109.8125 C 395.078125 107.933594 407.324219 107.625 421.269531 107.625 Z M 421.269531 107.625 "/>
<path style=" stroke:none;fill-rule:nonzero;fill:rgb(23.921569%,49.803922%,98.823529%);fill-opacity:1;" d="M 387.445312 15.375 C 389.472656 15.375 391.503906 15.375 393.59375 15.375 C 394.355469 17.722656 395.117188 20.066406 395.898438 22.484375 C 400.140625 31.605469 403.410156 35.003906 412.042969 39.976562 C 415.089844 39.976562 418.132812 39.976562 421.269531 39.976562 C 423.648438 79.082031 423.648438 79.082031 415.117188 93.210938 C 402.785156 100.148438 395.53125 101.476562 381.292969 101.476562 C 370.160156 96.632812 366.558594 93.207031 359.769531 83.023438 C 358.035156 67.589844 359.734375 52.058594 362.84375 36.898438 C 368.933594 38.421875 368.933594 38.421875 375.144531 39.976562 C 376.601562 36.488281 378.0625 33 379.566406 29.40625 C 384.371094 18.449219 384.371094 18.449219 387.445312 15.375 Z M 387.445312 15.375 "/>
</g>
</svg>
